# File created by Blade
# Date/Time:  Wed Jan 21 16:09:50 2015
#---------------------------------------------------------
:version 1.10
:name HOM
:units
  mass 1.0
  length 1.000000
  angle deg
:documentation
     Acclaim Skeleton File
:root
   axis xyz
   order TX TY TZ RX RY RZ
   position 0.000000 0.000000 0.000000
   orientation 0 0 0
:bonedata
   begin
      id 1
      name Spine_dum
      direction 0.000000 1.000000 0.000000
      length 7.067664
      axis 0.0 0.0 0.0 xyz
   end
   begin
      id 2
      name LeftUpLeg_dum
      direction 1.000000 0.000000 0.000000
      length 4.013002
      axis 0.0 0.0 0.0 xyz
   end
   begin
      id 3
      name RightUpLeg_dum
      direction -1.000000 0.000000 0.000000
      length 4.013002
      axis 0.0 0.0 0.0 xyz
   end
   begin
      id 4
      name Spine
      direction 0.000000 1.000000 0.000000
      length 0.000000
      axis 0.0 0.0 0.0 xyz
      dof rx ry rz
   end
   begin
      id 5
      name Spine_dum1
      direction 0.000000 1.000000 0.000000
      length 15.039886
      axis 0.0 0.0 0.0 xyz
   end
   begin
      id 6
      name Spine_dum2
      direction 0.000000 1.000000 0.000000
      length 10.530368
      axis 0.0 0.0 0.0 xyz
   end
   begin
      id 7
      name Spine_dum3
      direction 0.000000 1.000000 0.000000
      length 10.530368
      axis 0.0 0.0 0.0 xyz
   end
   begin
      id 8
      name Head
      direction 0.000000 1.000000 0.000000
      length 4.527550
      axis 0.0 0.0 0.0 xyz
      dof rx ry rz
   end
   begin
      id 9
      name LeftShoulder
      direction 1.000000 0.000000 0.000000
      length 7.028855
      axis 0.0 0.0 -90.0 xyz
      dof rx ry rz
   end
   begin
      id 10
      name LeftArm
      direction 1.000000 0.000000 0.000000
      length 10.797705
      axis 0.0 0.0 -90.0 xyz
      dof rx ry rz
   end
   begin
      id 11
      name LeftForeArm
      direction 1.000000 0.000000 0.000000
      length 7.907442
      axis 0.0 0.0 -90.0 xyz
      dof ry rz rx
   end
   begin
      id 12
      name LeftHand
      direction 0.000000 0.000000 0.000000
      length 0.000000
      axis 0.0 0.0 -90.0 xyz
      dof rx ry rz
   end
   begin
      id 13
      name LeftHand_dum1
      direction 0.000000 0.000000 0.000000
      length 0.000000
      axis 0.0 0.0 -90.0 xyz
   end
   begin
      id 14
      name LeftHand_dum2
      direction 1.000000 0.000000 0.000000
      length 3.937000
      axis 0.0 0.0 -90.0 xyz
   end
   begin
      id 15
      name LeftHandThumb1
      direction 0.000000 0.000000 1.000000
      length 3.937000
      axis 0.0 0.0 -90.0 xyz
      dof rx rz ry
   end
   begin
      id 16
      name RightShoulder
      direction -1.000000 0.000000 0.000000
      length 7.028855
      axis 0.0 0.0 90.0 xyz
      dof rx ry rz
   end
   begin
      id 17
      name RightArm
      direction -1.000000 0.000000 0.000000
      length 10.797705
      axis 0.0 0.0 90.0 xyz
      dof rx ry rz
   end
   begin
      id 18
      name RightForeArm
      direction -1.000000 0.000000 0.000000
      length 7.907442
      axis 0.0 0.0 90.0 xyz
      dof ry rz rx
   end
   begin
      id 19
      name RightHand
      direction 0.000000 0.000000 0.000000
      length 0.000000
      axis 0.0 0.0 90.0 xyz
      dof rx ry rz
   end
   begin
      id 20
      name RightHand_dum1
      direction 0.000000 0.000000 0.000000
      length 0.000000
      axis 0.0 0.0 90.0 xyz
   end
   begin
      id 21
      name RightHand_dum2
      direction -1.000000 0.000000 0.000000
      length 3.937000
      axis 0.0 0.0 90.0 xyz
   end
   begin
      id 22
      name RightHandThumb1
      direction 0.000000 0.000000 1.000000
      length 3.937000
      axis 0.0 0.0 90.0 xyz
      dof rx rz ry
   end
   begin
      id 23
      name LeftUpLeg
      direction 0.000000 -1.000000 0.000000
      length 16.899758
      axis 0.0 0.0 0.0 xyz
      dof rx ry rz
   end
   begin
      id 24
      name LeftLeg
      direction 0.000000 -1.000000 0.000000
      length 17.389183
      axis 0.0 0.0 0.0 xyz
      dof rx ry rz
   end
   begin
      id 25
      name LeftFoot
      direction 0.000000 -0.258819 0.965926
      length 4.924528
      axis 15.0 0.0 0.0 xyz
      dof rx ry rz
   end
   begin
      id 26
      name LeftToeBase
      direction 0.000000 0.000000 1.000000
      length 2.952750
      axis 0.0 0.0 0.0 xyz
      dof rx ry rz
   end
   begin
      id 27
      name RightUpLeg
      direction 0.000000 -1.000000 0.000000
      length 16.899758
      axis 0.0 0.0 0.0 xyz
      dof rx ry rz
   end
   begin
      id 28
      name RightLeg
      direction 0.000000 -1.000000 0.000000
      length 17.389183
      axis 0.0 0.0 0.0 xyz
      dof rx ry rz
   end
   begin
      id 29
      name RightFoot
      direction 0.000000 -0.258819 0.965926
      length 4.924528
      axis 15.0 0.0 0.0 xyz
      dof rx ry rz
   end
   begin
      id 30
      name RightToeBase
      direction 0.000000 0.000000 1.000000
      length 2.952750
      axis 0.0 0.0 0.0 xyz
      dof rx ry rz
   end
:hierarchy
   begin
      root Spine_dum LeftUpLeg_dum RightUpLeg_dum
      Spine_dum Spine
      LeftUpLeg_dum LeftUpLeg
      RightUpLeg_dum RightUpLeg
      Spine Spine_dum1 Spine_dum2 Spine_dum3
      Spine_dum1 Head
      Spine_dum2 LeftShoulder
      Spine_dum3 RightShoulder
      LeftShoulder LeftArm
      LeftArm LeftForeArm
      LeftForeArm LeftHand
      LeftHand LeftHand_dum1 LeftHand_dum2
      LeftHand_dum1 LeftHandThumb1
      RightShoulder RightArm
      RightArm RightForeArm
      RightForeArm RightHand
      RightHand RightHand_dum1 RightHand_dum2
      RightHand_dum1 RightHandThumb1
      LeftUpLeg LeftLeg
      LeftLeg LeftFoot
      LeftFoot LeftToeBase
      RightUpLeg RightLeg
      RightLeg RightFoot
      RightFoot RightToeBase
   end

# File created by Blade
# Date/Time:  Wed Jan 21 16:09:38 2015
# Frame Rate: 120.000 fps
#------------------------------------------------------
:FULLY-SPECIFIED
:DEGREES
1
root 19.328371 35.155919 -22.128820 -175.360177 -1.813726 -176.346145
Spine -14.708451 0.155801 3.932613
Head 7.130558 -0.260345 -0.498131
LeftShoulder -14.217919 -37.123305 22.918625
LeftArm -0.209949 1.639815 -6.890191
LeftForeArm 10.344840 -0.000000 -3.448468
LeftHand -11.017304 -0.000000 -3.782747
LeftHandThumb1 -26.253704 0.000000 33.147579
RightShoulder -13.297717 -3.924267 -11.581911
RightArm 5.715435 41.528382 11.379310
RightForeArm -33.162147 0.000000 4.751669
RightHand -7.086248 -0.000000 8.387675
RightHandThumb1 -24.326973 -0.000000 -32.862282
LeftUpLeg 7.535782 2.845164 7.465558
LeftLeg -14.451919 -0.000000 0.000000
LeftFoot -0.008660 24.219353 10.351632
LeftToeBase -138.988266 -0.000000 0.000000
RightUpLeg 3.741723 -9.418975 -0.087341
RightLeg -3.476776 -0.000000 0.000000
RightFoot -21.280206 -23.993158 16.878003
RightToeBase 24.407203 -0.000000 -0.000000
2
root 19.326450 35.155359 -22.134381 -175.355727 -1.832655 -176.350353
Spine -14.709889 0.144168 3.939217
Head 7.116486 -0.241721 -0.505182
LeftShoulder -14.228975 -37.124416 22.934577
LeftArm -0.211970 1.632229 -6.891192
LeftForeArm 10.364928 -0.000000 -3.462139
LeftHand -11.000758 -0.000000 -3.790702
LeftHandThumb1 -26.253704 0.000000 33.147579
RightShoulder -13.314796 -3.945755 -11.580493
RightArm 5.723591 41.553413 11.365200
RightForeArm -33.185787 -0.000000 4.736481
RightHand -7.074223 -0.000000 8.397387
RightHandThumb1 -24.326973 -0.000000 -32.862282
LeftUpLeg 7.535990 2.816650 7.460896
LeftLeg -14.452672 -0.000000 0.000000
LeftFoot -0.012501 24.229181 10.349394
LeftToeBase -138.973879 -0.000000 0.000000
RightUpLeg 3.759094 -9.446530 -0.094239
RightLeg -3.498575 -0.000000 0.000000
RightFoot -21.263443 -23.964043 16.939208
RightToeBase 24.256100 -0.000000 -0.000000
3
root 19.326218 35.154914 -22.139363 -175.348874 -1.848068 -176.349469
Spine -14.714665 0.142515 3.941277
Head 7.100586 -0.234038 -0.499349
LeftShoulder -14.236194 -37.110955 22.941136
LeftArm -0.193322 1.632063 -6.886474
LeftForeArm 10.371607 -0.000000 -3.478575
LeftHand -10.966076 -0.000000 -3.782817
LeftHandThumb1 -26.253704 0.000000 33.147579
RightShoulder -13.344579 -3.945078 -11.576547
RightArm 5.733160 41.555597 11.357171
RightForeArm -33.221617 0.000000 4.735642
RightHand -7.094111 -0.000000 8.396283
RightHandThumb1 -24.326973 -0.000000 -32.862282
LeftUpLeg 7.533647 2.819787 7.462920
LeftLeg -14.452987 -0.000000 0.000000
LeftFoot -0.025133 24.215906 10.364460
LeftToeBase -139.015389 -0.000000 0.000000
RightUpLeg 3.789700 -9.366249 -0.088325
RightLeg -3.549848 -0.000000 0.000000
RightFoot -21.280595 -24.081477 16.917390
RightToeBase 24.380725 -0.000000 -0.000000
4
root 19.325851 35.154371 -22.144293 -175.341266 -1.858859 -176.346714
Spine -14.719380 0.138474 3.946877
Head 7.085998 -0.223535 -0.493036
LeftShoulder -14.248299 -37.114500 22.964775
LeftArm -0.203687 1.619093 -6.887433
LeftForeArm 10.420808 -0.000000 -3.464093
LeftHand -10.971236 -0.000000 -3.777267
LeftHandThumb1 -26.253704 0.000000 33.147579
RightShoulder -13.353411 -3.935756 -11.580109
RightArm 5.710836 41.562827 11.338968
RightForeArm -33.268475 0.000000 4.746724
RightHand -7.085325 0.000000 8.415702
RightHandThumb1 -24.326973 -0.000000 -32.862282
LeftUpLeg 7.534795 2.823803 7.466931
LeftLeg -14.459917 -0.000000 0.000000
LeftFoot -0.012524 24.213107 10.365214
LeftToeBase -138.950033 -0.000000 0.000000
RightUpLeg 3.793027 -9.359138 -0.085045
RightLeg -3.552145 -0.000000 0.000000
RightFoot -21.288305 -24.095580 16.914508
RightToeBase 24.394195 -0.000000 -0.000000
5
root 19.324790 35.153794 -22.150094 -175.337793 -1.868703 -176.346281
Spine -14.719184 0.132386 3.958096
Head 7.071636 -0.211459 -0.500685
LeftShoulder -14.272171 -37.128228 22.978219
LeftArm -0.191602 1.632013 -6.875688
LeftForeArm 10.424729 0.000000 -3.473055
LeftHand -10.969939 0.000000 -3.761930
LeftHandThumb1 -26.253704 0.000000 33.147579
RightShoulder -13.369118 -3.918603 -11.595953
RightArm 5.680080 41.622987 11.343782
RightForeArm -33.363911 -0.000000 4.829636
RightHand -7.130400 -0.000000 8.447084
RightHandThumb1 -24.326973 -0.000000 -32.862282
LeftUpLeg 7.540571 2.833395 7.468504
LeftLeg -14.461051 -0.000000 0.000000
LeftFoot -0.034574 24.179567 10.369899
LeftToeBase -138.957192 -0.000000 0.000000
RightUpLeg 3.803718 -9.357281 -0.085919
RightLeg -3.559682 -0.000000 0.000000
RightFoot -21.293115 -24.109024 16.916271
RightToeBase 24.403390 -0.000000 -0.000000
6
root 19.323622 35.153081 -22.155117 -175.334053 -1.885139 -176.349123
Spine -14.720826 0.120852 3.962509
Head 7.067478 -0.202425 -0.505579
LeftShoulder -14.277523 -37.127660 22.980762
LeftArm -0.187011 1.638294 -6.858715
LeftForeArm 10.418714 0.000000 -3.480239
LeftHand -10.948517 -0.000000 -3.747370
LeftHandThumb1 -26.253704 0.000000 33.147579
RightShoulder -13.384621 -3.910632 -11.608612
RightArm 5.678045 41.637625 11.349448
RightForeArm -33.412928 -0.000000 4.841186
RightHand -7.150152 -0.000000 8.431259
RightHandThumb1 -24.326973 -0.000000 -32.862282
LeftUpLeg 7.538773 2.825802 7.463149
LeftLeg -14.461963 -0.000000 0.000000
LeftFoot -0.036014 24.202700 10.365322
LeftToeBase -138.968888 -0.000000 0.000000
RightUpLeg 3.809192 -9.382926 -0.089063
RightLeg -3.558095 -0.000000 0.000000
RightFoot -21.308117 -24.113577 16.898238
RightToeBase 24.449243 -0.000000 -0.000000
7
root 19.322682 35.152322 -22.160177 -175.327204 -1.894729 -176.350888
Spine -14.726863 0.111799 3.968331
Head 7.058029 -0.210626 -0.503149
LeftShoulder -14.286383 -37.110010 22.966009
LeftArm -0.145607 1.650106 -6.839332
LeftForeArm 10.366611 -0.000000 -3.529605
LeftHand -10.941869 0.000000 -3.631638
LeftHandThumb1 -26.253704 0.000000 33.147579
RightShoulder -13.391434 -3.928012 -11.616860
RightArm 5.670281 41.641103 11.348440
RightForeArm -33.421557 -0.000000 4.848972
RightHand -7.159314 -0.000000 8.428827
RightHandThumb1 -24.326973 -0.000000 -32.862282
LeftUpLeg 7.541140 2.830345 7.460438
LeftLeg -14.468938 -0.000000 0.000000
LeftFoot -0.046993 24.197712 10.357178
LeftToeBase -138.962644 -0.000000 0.000000
RightUpLeg 3.802185 -9.430211 -0.091895
RightLeg -3.542750 -0.000000 0.000000
RightFoot -21.297621 -24.056741 16.955661
RightToeBase 24.268605 -0.000000 -0.000000
8
root 19.321699 35.151864 -22.165157 -175.322221 -1.904521 -176.350692
Spine -14.731105 0.098578 3.975943
Head 7.062507 -0.210178 -0.503986
LeftShoulder -14.304645 -37.091530 22.975921
LeftArm -0.135210 1.627770 -6.829637
LeftForeArm 10.383313 -0.000000 -3.530913
LeftHand -10.946133 0.000000 -3.622481
LeftHandThumb1 -26.253704 0.000000 33.147579
RightShoulder -13.384816 -3.929023 -11.615815
RightArm 5.641120 41.613926 11.311811
RightForeArm -33.391639 -0.000000 4.847529
RightHand -7.162227 -0.000000 8.436779
RightHandThumb1 -24.326973 -0.000000 -32.862282
LeftUpLeg 7.541573 2.832961 7.459614
LeftLeg -14.470241 -0.000000 0.000000
LeftFoot -0.054432 24.188019 10.357429
LeftToeBase -138.965837 -0.000000 0.000000
RightUpLeg 3.802857 -9.440474 -0.091615
RightLeg -3.534834 -0.000000 0.000000
RightFoot -21.314434 -24.081759 16.896545
RightToeBase 24.368035 -0.000000 -0.000000
9
root 19.320823 35.151373 -22.170327 -175.315011 -1.909034 -176.347793
Spine -14.743043 0.084719 3.990724
Head 7.079359 -0.190331 -0.503798
LeftShoulder -14.313633 -37.095273 22.985726
LeftArm -0.157516 1.656406 -6.810286
LeftForeArm 10.359597 -0.000000 -3.510512
LeftHand -10.927333 0.000000 -3.628481
LeftHandThumb1 -26.253704 0.000000 33.147579
RightShoulder -13.388603 -3.945085 -11.620685
RightArm 5.658185 41.595486 11.310385
RightForeArm -33.394075 -0.000000 4.830418
RightHand -7.156437 -0.000000 8.433464
RightHandThumb1 -24.326973 -0.000000 -32.862282
LeftUpLeg 7.541485 2.835024 7.461705
LeftLeg -14.469392 -0.000000 0.000000
LeftFoot -0.055474 24.192838 10.369683
LeftToeBase -138.964033 -0.000000 0.000000
RightUpLeg 3.820371 -9.429297 -0.089904
RightLeg -3.568656 -0.000000 0.000000
RightFoot -21.293064 -24.078595 16.958724
RightToeBase 24.252670 -0.000000 -0.000000
10
root 19.319174 35.150808 -22.175304 -175.309382 -1.912293 -176.347284
Spine -14.750990 0.073087 4.004434
Head 7.085852 -0.209698 -0.513676
LeftShoulder -14.334495 -37.095036 22.998286
LeftArm -0.165025 1.650698 -6.798125
LeftForeArm 10.364623 -0.000000 -3.496986
LeftHand -10.925580 -0.000000 -3.630193
LeftHandThumb1 -26.253704 0.000000 33.147579
RightShoulder -13.392728 -3.934789 -11.633112
RightArm 5.670665 41.598200 11.309883
RightForeArm -33.416287 -0.000000 4.813968
RightHand -7.154546 0.000000 8.435646
RightHandThumb1 -24.326973 -0.000000 -32.862282
LeftUpLeg 7.540408 2.829965 7.460221
LeftLeg -14.465351 -0.000000 0.000000
LeftFoot -0.032681 24.181729 10.395486
LeftToeBase -139.048765 -0.000000 0.000000
RightUpLeg 3.826811 -9.418023 -0.090927
RightLeg -3.574595 -0.000000 0.000000
RightFoot -21.304737 -24.083645 16.990098
RightToeBase 24.200765 -0.000000 -0.000000
11
root 19.318622 35.150298 -22.180367 -175.306688 -1.909385 -176.349391
Spine -14.755423 0.072602 4.008468
Head 7.104551 -0.212223 -0.515285
LeftShoulder -14.343034 -37.094469 23.006133
LeftArm -0.172401 1.651532 -6.784196
LeftForeArm 10.338537 0.000000 -3.482182
LeftHand -10.933102 -0.000000 -3.708198
LeftHandThumb1 -26.253704 0.000000 33.147579
RightShoulder -13.397509 -3.932304 -11.638432
RightArm 5.668469 41.588734 11.303139
RightForeArm -33.462493 -0.000000 4.810439
RightHand -7.176114 -0.000000 8.400218
RightHandThumb1 -24.326973 -0.000000 -32.862282
LeftUpLeg 7.549005 2.814587 7.458151
LeftLeg -14.465432 -0.000000 0.000000
LeftFoot -0.067105 24.210746 10.389383
LeftToeBase -138.944906 -0.000000 0.000000
RightUpLeg 3.824229 -9.433377 -0.093595
RightLeg -3.557088 -0.000000 0.000000
RightFoot -21.328571 -24.095406 16.912703
RightToeBase 24.394871 -0.000000 -0.000000
